<svg width="32" height="32" viewBox="0 0 32 32" fill="none" xmlns="http://www.w3.org/2000/svg">
<path d="M31 7C28.6 8.33 26.05 9 23.5 9C20.95 9 18.4 8.33 16 7C13.6 5.67 11.05 5 8.5 5C5.95 5 3.4 5.67 1 7" stroke="white" stroke-width="1.5" stroke-miterlimit="10" stroke-linecap="round"/>
<path d="M31 13C28.6 14.33 26.05 15 23.5 15C20.95 15 18.4 14.33 16 13C13.6 11.67 11.05 11 8.5 11C5.95 11 3.4 11.67 1 13" stroke="white" stroke-width="1.5" stroke-miterlimit="10" stroke-linecap="round"/>
<path d="M31 19C28.6 20.33 26.05 21 23.5 21C20.95 21 18.4 20.33 16 19C13.6 17.67 11.05 17 8.5 17C5.95 17 3.4 17.67 1 19" stroke="white" stroke-width="1.5" stroke-miterlimit="10" stroke-linecap="round"/>
<path d="M31 25C28.6 26.33 26.05 27 23.5 27C20.95 27 18.4 26.33 16 25C13.6 23.67 11.05 23 8.5 23C5.95 23 3.4 23.67 1 25" stroke="white" stroke-width="1.5" stroke-miterlimit="10" stroke-linecap="round"/>
</svg>
